<svg width="125" height="125" viewBox="0 0 125 125" fill="none" xmlns="http://www.w3.org/2000/svg">
<g id="Group 11">
<path id="Combined Shape" fill-rule="evenodd" clip-rule="evenodd" d="M62.5 0C97.0178 0 125 27.9822 125 62.5C125 97.0178 97.0178 125 62.5 125C27.9822 125 0 97.0178 0 62.5C0 27.9822 27.9822 0 62.5 0ZM62.5 10C33.5051 10 10 33.5051 10 62.5C10 91.4949 33.5051 115 62.5 115C91.4949 115 115 91.4949 115 62.5C115 33.5051 91.4949 10 62.5 10ZM89.0165 81.9454C90.9691 83.8981 90.9691 87.0639 89.0165 89.0165C74.3718 103.661 50.6282 103.661 35.9835 89.0165C21.3388 74.3718 21.3388 50.6282 35.9835 35.9835C50.6282 21.3388 74.3718 21.3388 89.0165 35.9835C90.9691 37.9361 90.9691 41.1019 89.0165 43.0546C87.0639 45.0072 83.8981 45.0072 81.9454 43.0546L81.6213 42.7356C70.8584 32.3162 53.6866 32.4225 43.0546 43.0546C32.3151 53.794 32.3151 71.206 43.0546 81.9454C53.794 92.6849 71.206 92.6849 81.9454 81.9454C83.8981 79.9928 87.0639 79.9928 89.0165 81.9454Z" fill="white"/>
</g>
</svg>
